<?xml version="1.0" encoding="UTF-8" standalone="no"?>
<svg
   version="1.1"
   width="300"
   height="300"
   sodipodi:docname="Logo_pix.svg"
   xmlns:inkscape="http://www.inkscape.org/namespaces/inkscape"
   xmlns:sodipodi="http://sodipodi.sourceforge.net/DTD/sodipodi-0.dtd"
   xmlns="http://www.w3.org/2000/svg"
   xmlns:svg="http://www.w3.org/2000/svg">
  <path
     d="m 74.418329,91.731976 c 1.52898,0.391928 3.057621,0.785179 4.585938,1.179687 2.452321,0.390207 4.904222,0.777893 7.360839,1.140137 8.497295,2.768499 14.339444,9.18366 20.432124,15.43018 1.38893,1.40265 2.77786,2.8053 4.1671,4.20763 1.92711,1.94883 3.84735,3.90435 5.76742,5.86011 3.37107,3.43322 6.74701,6.86158 10.13197,10.2811 1.79706,1.81679 3.58918,3.63849 5.3757,5.46564 0.81467,0.8245 1.62935,1.64901 2.46871,2.4985 0.71089,0.72438 1.42178,1.44877 2.15422,2.1951 5.28426,4.74072 10.13498,6.26584 17.14192,5.9216 8.42857,-2.69023 14.10116,-8.50111 20.0664,-14.7539 1.40431,-1.43324 2.80862,-2.86646 4.21379,-4.29885 2.43841,-2.49264 4.85985,-5.00163 7.28231,-7.50975 2.89868,-3.00104 5.8003,-5.99876 8.72215,-8.97727 1.81072,-1.84807 3.61011,-3.70733 5.39615,-5.57926 5.05285,-5.153649 9.46826,-8.557276 16.3192,-10.880967 0.89139,-0.352961 1.78277,-0.705922 2.70117,-1.06958 7.05332,-2.177204 14.42334,-3.13619 21.29883,0.06958 16.52429,10.933577 36.90345,31.481137 41.52734,51.222657 1.88778,11.09266 -0.0214,21.71727 -6.27734,31.16797 -26.06405,35.87735 -26.06405,35.87735 -42.27344,38.58203 -11.8852,0.26268 -23.27393,-4.12798 -31.8562,-12.33228 -1.69202,-1.71284 -3.37096,-3.43868 -5.03833,-5.17553 -1.37753,-1.39921 -2.75506,-2.79841 -4.13307,-4.19715 -1.90688,-1.94159 -3.80213,-3.89434 -5.69719,-5.84747 -3.32556,-3.42597 -6.66098,-6.84218 -10.00917,-10.24602 -1.77554,-1.80736 -3.54344,-3.62227 -5.30246,-5.44571 -5.79829,-5.91571 -11.2886,-11.17087 -19.90499,-11.81834 -11.32815,0.50009 -19.2494,11.17538 -26.55859,18.6914 -1.61397,1.64123 -3.22858,3.28183 -4.84375,4.92188 -2.50946,2.55268 -5.01488,5.10884 -7.50976,7.67578 -2.43302,2.50001 -4.882,4.98346 -7.33399,7.46484 -0.73262,0.76157 -1.46524,1.52313 -2.22006,2.30777 -9.374059,9.42138 -19.856283,12.95715 -32.946445,14.00644 -11.78119,-0.2006 -18.117888,-6.20907 -26.017212,-14.32406 C 16.11982,170.53027 16.11982,170.53027 16.414911,149.9224 17.372813,129.16372 36.387473,112.35475 50.695673,98.802288 58.07906,92.082575 64.439847,89.938536 74.418329,91.731976 Z"
     id="path231" fill="#ffffff" />
  <path
     d="m 174.3529,27.906994 c 5.3544,4.048398 9.97121,8.917946 14.68652,13.676544 1.13006,1.130578 2.26064,2.260635 3.39171,3.390198 2.35198,2.352062 4.69875,4.709149 7.04164,7.070252 3.00772,3.030571 6.02657,6.049759 9.04909,9.065563 2.32772,2.324393 4.65045,4.653725 6.97157,6.984707 1.11229,1.116137 2.22593,2.230925 3.34093,3.344345 1.5487,1.548323 3.09076,3.10295 4.63109,4.659584 0.87886,0.883471 1.75773,1.766942 2.66322,2.677185 1.8756,2.136291 1.8756,2.136291 1.8756,4.136291 -1.4676,0.146953 -1.4676,0.146953 -2.96485,0.296875 -17.1855,1.960196 -26.524,8.837058 -38.49609,21.003912 -0.87178,0.87698 -1.74356,1.75396 -2.64175,2.65751 -2.76228,2.77998 -5.51772,5.56661 -8.27231,8.3542 -2.77637,2.80506 -5.55529,5.60758 -8.33658,8.40776 -1.72556,1.73783 -3.44844,3.47833 -5.1684,5.22171 -0.77485,0.78139 -1.54971,1.56278 -2.34805,2.36785 -0.68202,0.69027 -1.36405,1.38055 -2.06674,2.09175 -2.14453,2.01022 -3.43041,2.54609 -6.33023,3.09843 -7.85487,-1.16368 -14.39272,-10.40523 -19.78516,-15.88281 -1.58255,-1.59519 -3.16523,-3.19023 -4.74804,-4.78516 -2.45941,-2.48424 -4.91716,-4.97006 -7.37232,-7.45849 -2.39293,-2.42324 -4.79213,-4.84013 -7.19214,-7.25635 -0.72623,-0.73969 -1.45246,-1.47938 -2.2007,-2.241485 C 98.031362,86.679186 86.688018,83.330327 70.004267,82.911663 c 1.535496,-3.63054 3.707721,-5.966797 6.474609,-8.749267 0.928568,-0.9381 1.857136,-1.8762 2.813843,-2.842728 1.018103,-1.017841 2.036544,-2.035345 3.055298,-3.052536 1.049576,-1.053467 2.098929,-2.107156 3.148071,-3.161056 2.202452,-2.209912 4.408737,-4.415912 6.617554,-6.619461 2.807891,-2.802132 5.604329,-5.615382 8.397668,-8.432012 2.1671,-2.181964 4.34123,-4.356824 6.51732,-6.529817 1.03241,-1.032912 2.0625,-2.068142 3.09006,-3.105869 18.54667,-18.707329 40.21409,-28.669118 64.23421,-12.511923 z"
     id="path233" fill="#ffffff" />
  <path
     d="m 150.50354,168.01542 c 5.1106,1.30839 7.85273,4.20279 11.50073,7.89624 0.68053,0.66913 1.36107,1.33825 2.06222,2.02765 2.18704,2.17092 4.34331,4.36931 6.49637,6.57391 1.61869,1.64107 3.23785,3.28168 4.85742,4.92188 2.51691,2.554 5.03059,5.11088 7.53638,7.67578 2.44283,2.49757 4.89839,4.98203 7.3562,7.46484 0.73778,0.76157 1.47557,1.52313 2.2357,2.30777 10.13851,10.18861 21.266,14.25901 35.45571,15.02817 -1.55753,3.71487 -3.83726,6.10259 -6.6582,8.94873 -0.47191,0.47863 -0.94382,0.95725 -1.43003,1.45038 -1.55906,1.57803 -3.12553,3.14843 -4.69302,4.71808 -1.09434,1.10078 -2.18854,2.2017 -3.28259,3.30276 -2.29645,2.30842 -4.59699,4.61268 -6.90003,6.91452 -2.93075,2.93055 -5.84755,5.87456 -8.76087,8.82242 -2.25811,2.28051 -4.52541,4.5517 -6.79527,6.8205 -1.07795,1.0803 -2.15272,2.1638 -3.22403,3.2507 -10.76525,10.90709 -21.32758,18.67105 -37.13096,19.20941 -13.82275,-0.34557 -22.70753,-5.89895 -32.125,-15.4375 -2.43479,-2.46103 -4.8732,-4.91844 -7.3125,-7.375 -0.93876,-0.95133 -0.93876,-0.95133 -1.89649,-1.92187 -3.07368,-3.08944 -6.17757,-6.07745 -9.490232,-8.91016 -5.294313,-4.57022 -10.215887,-9.52203 -15.158203,-14.46509 -1.66194,-1.65971 -3.331774,-3.31122 -5.001953,-4.96264 -1.057779,-1.05485 -2.115089,-2.11018 -3.171875,-3.16602 -0.749812,-0.73903 -0.749812,-0.73903 -1.514771,-1.493 -3.453979,-3.47735 -3.453979,-3.47735 -3.453979,-5.70622 0.955195,-0.0258 1.91039,-0.0516 2.894531,-0.0781 21.351507,-0.93666 33.123842,-11.68844 47.492192,-26.45703 1.53056,-1.56579 3.06116,-3.13155 4.59179,-4.69727 2.37199,-2.42779 4.73802,-4.86031 7.08912,-7.30835 2.29867,-2.38936 4.61893,-4.75583 6.94409,-7.11938 0.69808,-0.73735 1.39616,-1.4747 2.1154,-2.2344 3.10195,-3.11939 5.0527,-4.89538 9.37215,-6.00169 z"
     id="path235" fill="#ffffff" />
</svg>
